<svg width="99" height="116" viewBox="0 0 99 116" fill="none" xmlns="http://www.w3.org/2000/svg">
<path d="M30.3145 0.330722C29.7478 0.33436 29.1909 0.478594 28.6941 0.750403C27.063 1.65143 26.4647 3.73981 27.3685 5.3642L31.0512 11.9912C22.1783 17.4617 16.299 26.8065 16.299 37.4719V39.4536C14.5948 37.4997 12.09 36.2661 9.2913 36.2661C4.16341 36.2661 0 40.4151 0 45.5249V74.0466C0 79.156 4.1638 83.3054 9.2913 83.3054C12.09 83.3054 14.5948 82.0714 16.2986 80.1175V84.1128C16.2986 89.4993 20.7215 93.9065 26.1267 93.9065H28.6203V106.594C28.6203 111.705 32.7841 115.854 37.9116 115.854C43.0391 115.854 47.2025 111.704 47.2025 106.594V93.9065H51.5167V106.594C51.5167 111.705 55.6805 115.854 60.808 115.854C65.9355 115.854 70.099 111.704 70.099 106.594V93.9065H72.5929C77.9977 93.9065 82.4206 89.4993 82.4206 84.1128V80.1175C84.1245 82.0714 86.6296 83.3054 89.4283 83.3054C94.5558 83.3054 98.7192 79.156 98.7192 74.0466V45.5249C98.7192 40.4151 94.5558 36.2661 89.4283 36.2661C86.6296 36.2661 84.1245 37.4997 82.4206 39.4536V37.8072V37.7128C82.4214 37.6126 82.4206 37.5324 82.4206 37.4719C82.4206 26.8084 76.5278 17.4729 67.658 12.002L71.3512 5.3642C72.2545 3.73981 71.6567 1.65143 70.0255 0.750403C69.5287 0.478594 68.9718 0.33436 68.4051 0.330722C67.2005 0.319161 66.0183 0.951958 65.3957 2.07149L61.5339 9.02379C57.758 7.63526 53.6495 6.87413 49.36 6.87413C45.0744 6.87413 40.9582 7.62716 37.1853 9.013L33.3239 2.07149C32.7009 0.951958 31.5191 0.319931 30.3145 0.330722Z" fill="white"/>
<path d="M9.29271 38.6777C5.46651 38.6777 2.42188 41.7118 2.42188 45.5248V74.0466C2.42188 77.8595 5.46651 80.8936 9.29271 80.8936C13.1189 80.8936 16.1639 77.8595 16.1639 74.0466V45.5248C16.1639 41.7118 13.1189 38.6777 9.29271 38.6777ZM89.4301 38.6777C85.6035 38.6777 82.5589 41.7118 82.5589 45.5248V74.0466C82.5589 77.8595 85.6035 80.8936 89.4301 80.8936C93.2563 80.8936 96.3009 77.8595 96.3009 74.0466V45.5248C96.3009 41.7118 93.2563 38.6777 89.4301 38.6777Z" fill="#A4C639"/>
<path d="M37.9103 71.2256C34.0841 71.2256 31.0391 74.2597 31.0391 78.0731V106.594C31.0391 110.407 34.0841 113.442 37.9103 113.442C41.7365 113.442 44.7811 110.407 44.7811 106.594V78.0731C44.7811 74.2597 41.7365 71.2256 37.9103 71.2256ZM60.8067 71.2256C56.9802 71.2256 53.9355 74.2597 53.9355 78.0731V106.594C53.9355 110.407 56.9802 113.442 60.8067 113.442C64.6329 113.442 67.6776 110.407 67.6776 106.594V78.0731C67.6776 74.2597 64.6329 71.2256 60.8067 71.2256Z" fill="#A4C639"/>
<path d="M30.335 2.74281C30.1725 2.74476 30.0132 2.788 29.8721 2.86845C29.3822 3.13898 29.2213 3.7001 29.4931 4.18953L34.3337 12.9034C25.0215 17.7322 18.7311 26.9086 18.7188 37.4403H80.0001C79.9874 26.9086 73.6974 17.7319 64.3852 12.9034L69.2254 4.18992C69.4976 3.70048 69.3364 3.13898 68.8464 2.86845C68.7054 2.78796 68.546 2.74471 68.3835 2.74281C68.0355 2.73896 67.7064 2.91238 67.5207 3.24612L62.6171 12.054C58.6061 10.2813 54.107 9.28583 49.3593 9.28583C44.6115 9.28583 40.1128 10.2809 36.1014 12.054L31.1978 3.24612C31.1142 3.09151 30.9895 2.96278 30.8374 2.87402C30.6853 2.78525 30.5116 2.73986 30.3354 2.74281H30.335ZM18.7188 39.852V84.1131C18.7167 85.0831 18.9069 86.044 19.2784 86.9405C19.6499 87.837 20.1955 88.6516 20.8838 89.3375C21.572 90.0234 22.3895 90.567 23.2892 90.9372C24.1888 91.3074 25.153 91.4969 26.1264 91.4947H72.5926C73.5659 91.4969 74.5302 91.3074 75.4299 90.9372C76.3295 90.5669 77.147 90.0233 77.8353 89.3374C78.5236 88.6515 79.0691 87.8368 79.4406 86.9402C79.8121 86.0436 80.0023 85.0828 80.0001 84.1127V39.8524H18.7188V39.852Z" fill="#A4C639"/>
<path d="M35.2171 21.1663C33.8184 21.1663 32.6602 22.3201 32.6602 23.714C32.6602 25.1083 33.8184 26.2622 35.2171 26.2622C36.6163 26.2622 37.7741 25.1083 37.7741 23.714C37.7741 22.3201 36.6163 21.1663 35.2171 21.1663ZM63.501 21.1663C62.1018 21.1663 60.944 22.3201 60.944 23.714C60.944 25.1083 62.1018 26.2622 63.501 26.2622C64.8997 26.2622 66.0579 25.1083 66.0579 23.714C66.0579 22.3201 64.8997 21.1663 63.501 21.1663Z" fill="white"/>
</svg>
