<svg width="107" height="88" viewBox="0 0 107 88" fill="none" xmlns="http://www.w3.org/2000/svg">
<g clip-path="url(#clip0)">
<path d="M53.6227 0C25.2015 0 2.93487 36.08 0.828125 66.5536C9.74703 81.9982 31.2547 87.8038 53.6236 87.8038C75.9908 87.8038 97.4997 81.9982 106.414 66.5532C104.307 36.08 82.0432 0 53.6232 0" fill="#B6DEFF"/>
<path d="M98.9892 59.2947C98.9892 59.2947 92.712 45.7535 86.3317 37.8533C79.9469 29.9498 72.1497 21.344 67.5395 21.344C62.9318 21.344 50.0512 44.0992 44.1421 44.0992C38.2318 44.0992 35.1602 33.7838 27.8939 33.7838C20.6246 33.7838 9.07555 58.6589 9.07555 58.6589L8.29297 62.8759C8.29297 62.8759 12.3052 80.625 54.2804 80.625C96.2572 80.625 99.612 63.1671 99.612 63.1671L98.9896 59.2943" fill="#66CC66"/>
<path d="M44.8009 53.8101C38.2819 53.8101 34.94 47.3923 33.1281 43.4307C31.4987 39.8619 31.2168 34.2275 26.5938 34.0696C27.048 33.8899 27.4852 33.7837 27.8951 33.7837C35.1615 33.7837 38.233 44.0992 44.1434 44.0992C50.0525 44.0992 62.9331 21.3435 67.5408 21.3435C68.4091 21.3435 69.3871 21.6492 70.4483 22.1929C69.6633 22.0896 68.6567 22.1615 67.8811 22.9378C66.3918 24.4243 52.8714 53.8101 44.8009 53.8101Z" fill="#17AD49"/>
</g>
<defs>
<clipPath id="clip0">
<rect width="106" height="88" fill="white" transform="translate(0.5)"/>
</clipPath>
</defs>
</svg>
