<svg width="41" height="42" viewBox="0 0 41 42" fill="none" xmlns="http://www.w3.org/2000/svg">
<path d="M35.2321 4.81104H5.77302C5.06456 4.81104 4.49219 5.38341 4.49219 6.09187V35.551C4.49219 36.2594 5.06456 36.8318 5.77302 36.8318H35.2321C35.9406 36.8318 36.513 36.2594 36.513 35.551V6.09187C36.513 5.38341 35.9406 4.81104 35.2321 4.81104ZM31.5337 14.1571H28.9761C26.9708 14.1571 26.5825 15.1097 26.5825 16.5106V19.5966H31.3696L30.7452 24.4278H26.5825V36.8318H21.5913V24.4318H17.4166V19.5966H21.5913V16.0343C21.5913 11.8996 24.1169 9.64617 27.8073 9.64617C29.5765 9.64617 31.0934 9.77826 31.5377 9.8383V14.1571H31.5337Z" fill="#EF2779"/>
</svg>
