<svg width="43" height="44" viewBox="0 0 43 44" fill="none" xmlns="http://www.w3.org/2000/svg">
<rect y="0.5" width="43" height="43" rx="21.5" fill="#EF2779"/>
<path d="M17.5927 23.2387L20.2239 20.6075L14.4687 14.8616C14.0224 14.4153 13.2507 14.5362 12.9718 15.1127C12.3116 16.498 12.5534 18.1994 13.697 19.3523L17.5927 23.2387ZM23.8964 21.5559C25.3189 22.216 27.3179 21.7511 28.7962 20.2728C30.5721 18.497 30.9161 15.9494 29.5493 14.5827C28.1919 13.2253 25.6443 13.56 23.8592 15.3358C22.3809 16.8141 21.916 18.8131 22.5761 20.2356L14.1526 28.6592C13.9787 28.833 13.881 29.0688 13.881 29.3147C13.881 29.5605 13.9787 29.7963 14.1526 29.9702C14.3264 30.144 14.5622 30.2417 14.808 30.2417C15.0539 30.2417 15.2897 30.144 15.4635 29.9702L21.2187 24.2336L26.9646 29.9795C27.0507 30.0655 27.1529 30.1338 27.2653 30.1804C27.3778 30.227 27.4983 30.251 27.6201 30.251C27.7418 30.251 27.8624 30.227 27.9748 30.1804C28.0873 30.1338 28.1895 30.0655 28.2756 29.9795C28.3616 29.8934 28.4299 29.7912 28.4765 29.6787C28.5231 29.5663 28.5471 29.4457 28.5471 29.324C28.5471 29.2022 28.5231 29.0817 28.4765 28.9692C28.4299 28.8568 28.3616 28.7546 28.2756 28.6685L22.5297 22.9226L23.8964 21.5559Z" fill="white"/>
</svg>
