<svg width="42" height="42" viewBox="0 0 42 42" fill="none" xmlns="http://www.w3.org/2000/svg">
<path d="M36.2165 4.81104H6.75739C6.04893 4.81104 5.47656 5.38341 5.47656 6.09187V35.551C5.47656 36.2594 6.04893 36.8318 6.75739 36.8318H36.2165C36.925 36.8318 37.4973 36.2594 37.4973 35.551V6.09187C37.4973 5.38341 36.925 4.81104 36.2165 4.81104ZM14.9747 32.0967H10.2236V16.8148H14.9747V32.0967ZM12.6012 14.7255C12.0565 14.7255 11.5241 14.564 11.0713 14.2614C10.6184 13.9588 10.2654 13.5287 10.057 13.0255C9.84859 12.5223 9.79406 11.9686 9.90031 11.4344C10.0066 10.9003 10.2688 10.4096 10.654 10.0245C11.0391 9.63934 11.5298 9.37706 12.0639 9.27081C12.5981 9.16455 13.1518 9.21909 13.655 9.42751C14.1582 9.63594 14.5883 9.9889 14.8909 10.4418C15.1935 10.8946 15.355 11.427 15.355 11.9717C15.351 13.4927 14.1182 14.7255 12.6012 14.7255ZM32.7623 32.0967H28.0152V24.6639C28.0152 22.8908 27.9832 20.6133 25.5456 20.6133C23.076 20.6133 22.6957 22.5425 22.6957 24.5358V32.0967H17.9527V16.8148H22.5076V18.9042H22.5717C23.2041 17.7034 24.7531 16.4346 27.0666 16.4346C31.8777 16.4346 32.7623 19.6006 32.7623 23.7153V32.0967Z" fill="#EF2779"/>
</svg>
