<svg width="27" height="33" viewBox="0 0 27 33" fill="none" xmlns="http://www.w3.org/2000/svg">
<g clip-path="url(#clip0)">
<path d="M13.5013 19.4816C16.9941 19.4816 19.8346 16.6411 19.8346 13.1483C19.8346 9.65544 16.9941 6.81494 13.5013 6.81494C10.0085 6.81494 7.16797 9.65544 7.16797 13.1483C7.16797 16.6411 10.0085 19.4816 13.5013 19.4816ZM13.5013 9.98161C15.2477 9.98161 16.668 11.4019 16.668 13.1483C16.668 14.8947 15.2477 16.3149 13.5013 16.3149C11.7549 16.3149 10.3346 14.8947 10.3346 13.1483C10.3346 11.4019 11.7549 9.98161 13.5013 9.98161Z" fill="#EF2779"/>
<path d="M12.2485 31.8536C12.5164 32.045 12.8375 32.1479 13.1668 32.1479C13.4961 32.1479 13.8172 32.045 14.0851 31.8536C14.5665 31.5132 25.8794 23.3448 25.8335 13.1481C25.8335 6.16403 20.1509 0.481445 13.1668 0.481445C6.18272 0.481445 0.500139 6.16403 0.500139 13.1402C0.454223 23.3448 11.7671 31.5132 12.2485 31.8536ZM13.1668 3.64811C18.4061 3.64811 22.6668 7.90886 22.6668 13.156C22.7001 20.1829 15.7191 26.4924 13.1668 28.5619C10.6161 26.4909 3.63356 20.1797 3.66681 13.1481C3.66681 7.90886 7.92756 3.64811 13.1668 3.64811Z" fill="#EF2779"/>
</g>
<defs>
<clipPath id="clip0">
<rect width="26" height="32" fill="white" transform="translate(0.5 0.314941)"/>
</clipPath>
</defs>
</svg>
