<svg width="28" height="23" viewBox="0 0 28 23" fill="none" xmlns="http://www.w3.org/2000/svg">
<g clip-path="url(#clip0)">
<path d="M25.8125 1.00244H1.4375C0.918945 1.00244 0.5 1.42139 0.5 1.93994V20.6899C0.5 21.2085 0.918945 21.6274 1.4375 21.6274H25.8125C26.3311 21.6274 26.75 21.2085 26.75 20.6899V1.93994C26.75 1.42139 26.3311 1.00244 25.8125 1.00244ZM24.6406 4.24853V19.5181H2.60938V4.24853L1.80078 3.61865L2.95215 2.13916L4.20605 3.11475H23.0469L24.3008 2.13916L25.4521 3.61865L24.6406 4.24853V4.24853ZM23.0469 3.11182L13.625 10.436L4.20312 3.11182L2.94922 2.13623L1.79785 3.61572L2.60645 4.24561L12.6143 12.0269C12.9021 12.2505 13.2561 12.3718 13.6206 12.3718C13.9851 12.3718 14.3391 12.2505 14.627 12.0269L24.6406 4.24853L25.4492 3.61865L24.2979 2.13916L23.0469 3.11182Z" fill="#EF2779"/>
</g>
<defs>
<clipPath id="clip0">
<rect width="27" height="22" fill="white" transform="translate(0.5 0.314941)"/>
</clipPath>
</defs>
</svg>
