<svg width="42" height="42" viewBox="0 0 42 42" fill="none" xmlns="http://www.w3.org/2000/svg">
<path d="M37.165 10.5066C35.9402 11.0349 34.6073 11.4152 33.2344 11.5633C34.6598 10.7165 35.7272 9.37865 36.2364 7.80083C34.8988 8.5965 33.4336 9.15444 31.9056 9.4499C31.2669 8.76716 30.4945 8.22326 29.6365 7.85209C28.7785 7.48092 27.8532 7.29043 26.9183 7.2925C23.1359 7.2925 20.0939 10.3585 20.0939 14.1209C20.0939 14.6493 20.1579 15.1776 20.262 15.6859C14.5983 15.3898 9.54707 12.684 6.18889 8.54131C5.57699 9.58645 5.25634 10.7765 5.26028 11.9875C5.26028 14.3571 6.46507 16.4464 8.30226 17.6752C7.21957 17.6326 6.16224 17.335 5.21626 16.8067V16.8907C5.21626 20.2089 7.56178 22.9587 10.6878 23.5911C10.1009 23.7435 9.49706 23.8215 8.89064 23.8232C8.44635 23.8232 8.02608 23.7792 7.6018 23.7192C8.46636 26.4249 10.984 28.3902 13.9819 28.4542C11.6364 30.2914 8.69851 31.3721 5.50845 31.3721C4.93607 31.3721 4.40773 31.3521 3.85938 31.2881C6.88534 33.2293 10.4757 34.3501 14.3422 34.3501C26.8943 34.3501 33.7628 23.9513 33.7628 14.9255C33.7628 14.6293 33.7628 14.3331 33.7428 14.0369C35.0716 13.0642 36.2364 11.8595 37.165 10.5066Z" fill="#EF2779"/>
</svg>
